<?xml version="1.0" encoding="utf-8"?>
<!-- Generator: Adobe Illustrator 17.1.0, SVG Export Plug-In . SVG Version: 6.00 Build 0)  -->
<!DOCTYPE svg PUBLIC "-//W3C//DTD SVG 1.1//EN" "http://www.w3.org/Graphics/SVG/1.1/DTD/svg11.dtd">
<svg version="1.1" id="圖層_1" xmlns="http://www.w3.org/2000/svg" xmlns:xlink="http://www.w3.org/1999/xlink" x="0px" y="0px"
	 viewBox="0 0 322.9 111.6" enable-background="new 0 0 322.9 111.6" xml:space="preserve">
<g>
	<g>
		<path fill="#FFFFFF" d="M203.5,42.2l-11.3,26.1h1.4c0.2,0,0.3,0,0.4-0.1c0.1-0.1,0.2-0.2,0.3-0.3l3-7.4h12.5l3,7.4
			c0.1,0.1,0.1,0.3,0.3,0.3c0.1,0.1,0.2,0.1,0.4,0.1h1.4L203.5,42.2z M197.8,59.1c0,0,5.6-12.9,5.7-13.2c0.1,0.3,5.7,13.2,5.7,13.2
			H197.8z"/>
		<path fill="#FFFFFF" d="M127,42.2l-11.3,26.1h1.4c0.2,0,0.3,0,0.4-0.1c0.1-0.1,0.2-0.2,0.3-0.3l3-7.4h12.5l3,7.4
			c0.1,0.1,0.1,0.3,0.3,0.3c0.1,0.1,0.2,0.1,0.4,0.1h1.4L127,42.2z M121.3,59.1c0,0,5.6-12.9,5.7-13.2c0.1,0.3,5.7,13.2,5.7,13.2
			H121.3z"/>
		<path fill="#FFFFFF" d="M164.4,55.7c0,1.3-0.1,2.5-0.4,3.6c-0.3,1.1-0.6,2.2-1.1,3.1c-0.5,0.9-1.1,1.8-1.7,2.6
			c-0.7,0.8-1.5,1.4-2.3,1.9l2.3,2.5c0,0-2,0.1-2.2,0c-0.2-0.1-0.4-0.3-0.5-0.4l-1.1-1.2c-0.8,0.3-1.5,0.5-2.4,0.7
			c-0.8,0.2-1.7,0.3-2.7,0.3c-1.8,0-3.4-0.3-4.9-0.9c-1.5-0.6-2.8-1.5-3.8-2.6c-1.1-1.1-1.9-2.5-2.5-4.1c-0.6-1.6-0.9-3.4-0.9-5.3
			c0-1.9,0.3-3.7,0.9-5.3c0.6-1.6,1.4-3,2.5-4.1c1.1-1.1,2.3-2,3.8-2.6c1.5-0.6,3.1-0.9,4.9-0.9c1.8,0,3.4,0.3,4.9,0.9
			c1.5,0.6,2.8,1.5,3.8,2.6c1.1,1.1,1.9,2.5,2.5,4.1C164.1,51.9,164.4,53.7,164.4,55.7z M162.5,55.7c0-1.8-0.2-3.4-0.7-4.8
			c-0.5-1.4-1.2-2.6-2.1-3.6c-0.9-1-2-1.7-3.2-2.3c-1.3-0.5-2.6-0.8-4.2-0.8c-1.5,0-2.9,0.3-4.1,0.8c-1.2,0.5-2.3,1.3-3.2,2.3
			c-0.9,1-1.6,2.2-2.1,3.6c-0.5,1.4-0.7,3-0.7,4.8c0,1.8,0.2,3.4,0.7,4.8c0.5,1.4,1.2,2.6,2.1,3.6c0.9,1,2,1.7,3.2,2.2
			c1.2,0.5,2.6,0.8,4.1,0.8c1.5,0,2.9-0.2,4.1-0.7l-7.7-9.9c0.2-0.4,0.7-0.7,1.2-0.9l8.1,10c0.6-0.4,1.3-1,1.7-1.5
			c0.9-1,1.6-2.2,2.1-3.6C162.2,59,162.5,57.5,162.5,55.7z"/>
		<path fill="#FFFFFF" d="M179.7,67.1c1.2,0,2.3-0.2,3.3-0.6c1-0.4,1.8-1,2.4-1.8c0.7-0.8,1.2-1.6,1.5-2.7c0.4-1,0.5-2.1,0.5-3.3V43
			h1.8v15.7c0,1.4-0.2,2.7-0.7,3.9c-0.4,1.2-1.1,2.3-1.9,3.2c-0.8,0.9-1.8,1.6-3,2.1c-1.2,0.5-2.5,0.8-4,0.8c-1.5,0-2.8-0.3-4-0.8
			c-1.2-0.5-2.2-1.2-3-2.1c-0.8-0.9-1.5-2-1.9-3.2c-0.4-1.2-0.7-2.5-0.7-3.9v-8.1V43h1.8v15.7c0,1.2,0.2,2.3,0.5,3.3
			c0.4,1,0.9,1.9,1.5,2.7c0.7,0.8,1.5,1.3,2.4,1.8C177.4,66.8,178.5,67.1,179.7,67.1z"/>
		<polygon fill="#FFFFFF" points="237.2,68.5 237.2,55.9 219.8,55.9 219.8,68.5 219.1,68.5 219.1,43.1 219.8,43.1 219.8,55.3 
			237.2,55.3 237.2,43.1 237.9,43.1 237.9,68.5 		"/>
		<path fill="#FFFFFF" d="M256.4,68.7c-1.7,0-3.3-0.3-4.7-0.9c-1.4-0.6-2.7-1.5-3.7-2.6c-1-1.1-1.8-2.5-2.4-4.1
			c-0.6-1.6-0.9-3.4-0.9-5.4c0-2,0.3-3.8,0.9-5.4c0.6-1.6,1.4-3,2.4-4.1c1-1.1,2.3-2,3.7-2.6c1.4-0.6,3-0.9,4.7-0.9
			c1.7,0,3.3,0.3,4.8,0.9c1.4,0.6,2.7,1.5,3.7,2.6c1,1.1,1.8,2.5,2.4,4.1c0.6,1.6,0.9,3.4,0.9,5.4c0,2-0.3,3.8-0.9,5.4
			c-0.6,1.6-1.4,3-2.4,4.1c-1,1.1-2.3,2-3.7,2.6C259.7,68.4,258.1,68.7,256.4,68.7z M256.4,43.5c-1.6,0-3.1,0.3-4.4,0.8
			c-1.3,0.6-2.5,1.4-3.5,2.4c-1,1.1-1.7,2.4-2.3,3.9c-0.5,1.5-0.8,3.3-0.8,5.2s0.3,3.7,0.8,5.2c0.5,1.5,1.3,2.8,2.3,3.9
			c1,1.1,2.1,1.9,3.5,2.4c1.3,0.6,2.8,0.8,4.4,0.8c1.6,0,3.1-0.3,4.5-0.8c1.3-0.6,2.5-1.4,3.5-2.4c1-1.1,1.7-2.4,2.3-3.9
			c0.5-1.5,0.8-3.3,0.8-5.2c0-1.9-0.3-3.7-0.8-5.2c-0.5-1.5-1.3-2.8-2.3-3.9c-1-1.1-2.1-1.9-3.5-2.4C259.5,43.7,258,43.5,256.4,43.5
			z"/>
		<polygon fill="#FFFFFF" points="274.9,68.5 274.9,43.1 275.5,43.1 275.5,67.8 288.4,67.8 288.4,68.5 		"/>
		<rect x="293.8" y="43.1" fill="#FFFFFF" width="0.7" height="25.4"/>
		<path fill="#FFFFFF" d="M313.8,68.8c-1.7,0-3.3-0.3-4.7-0.9c-1.4-0.6-2.7-1.5-3.7-2.6c-1-1.1-1.9-2.5-2.5-4.1
			c-0.6-1.6-0.9-3.4-0.9-5.4c0-1.9,0.3-3.7,0.9-5.3c0.6-1.6,1.4-3,2.5-4.1c1.1-1.1,2.4-2,3.8-2.6c1.5-0.6,3.1-0.9,4.9-0.9
			c0.9,0,1.7,0.1,2.5,0.2c0.7,0.1,1.4,0.3,2.1,0.6c0.6,0.2,1.2,0.6,1.8,0.9c0.6,0.4,1.2,0.8,1.7,1.3l0.1,0.1l-0.1,0.1
			c-0.2,0.2-0.3,0.2-0.3,0.2c-0.1,0-0.3-0.1-0.5-0.2c-0.2-0.1-0.4-0.3-0.6-0.5c-0.3-0.2-0.6-0.4-1-0.7c-0.4-0.2-0.9-0.5-1.4-0.7
			c-0.5-0.2-1.2-0.4-1.9-0.5c-0.7-0.1-1.5-0.2-2.4-0.2c-1.7,0-3.2,0.3-4.6,0.9c-1.4,0.6-2.6,1.4-3.6,2.5c-1,1.1-1.8,2.4-2.4,3.9
			c-0.6,1.5-0.9,3.2-0.9,5.1c0,1.9,0.3,3.7,0.8,5.2c0.6,1.5,1.3,2.8,2.3,3.9c1,1.1,2.2,1.9,3.5,2.4c1.3,0.6,2.8,0.8,4.4,0.8
			c1,0,1.9-0.1,2.7-0.2c0.8-0.1,1.5-0.3,2.2-0.6c0.7-0.3,1.3-0.6,1.8-1c0.6-0.4,1.1-0.9,1.7-1.4l0.2-0.1l0.2,0.1l0.3,0.2l-0.1,0.1
			c-0.5,0.5-1.1,1-1.7,1.4c-0.6,0.4-1.3,0.8-2,1.1c-0.7,0.3-1.5,0.6-2.4,0.7C315.8,68.7,314.9,68.8,313.8,68.8z"/>
	</g>
	<g>
		<defs>
			<polygon id="SVGID_1_" points="47.9,111.6 0,55.5 47.8,0 94.7,55.4 			"/>
		</defs>
		<clipPath id="SVGID_2_">
			<use xlink:href="#SVGID_1_"  overflow="visible"/>
		</clipPath>
		<g clip-path="url(#SVGID_2_)">
			<g>
				<path fill="#FFFFFF" d="M37.5,5.8l6.2,31.6c0.3-0.1,0.7-0.3,1.1-0.4L38.6,5.6L37.5,5.8z"/>
				<path fill="#FFFFFF" d="M27.6,16l11.7,23.8c0.4-0.3,0.8-0.5,1.2-0.8L28.8,15.3L27.6,16z"/>
				<path fill="#FFFFFF" d="M17.8,26.2L35,43.6c0.4-0.4,0.7-0.8,1.1-1.2L19,25L17.8,26.2z"/>
				<path fill="#FFFFFF" d="M8.1,36.4l23.9,12.1c0.3-0.6,0.5-1.2,0.8-1.7L9,34.6L8.1,36.4z"/>
				<path fill="#FFFFFF" d="M-1.5,46.5l32.2,6.5c0.1-0.7,0.3-1.5,0.5-2.2L-1,44.3L-1.5,46.5z"/>
				<path fill="#FFFFFF" d="M-12,56.6h0.9v0h41.5c0,0,0,0,0,0c0-0.8,0.1-1.7,0.2-2.5c0,0,0,0,0,0H-12V56.6z"/>
				<path fill="#FFFFFF" d="M47.6-4.2h-0.2v40.6c0.1,0,0.1,0,0.2,0c0.1,0,0.3,0,0.4-0.1c0.1,0,0.1,0,0.2,0V-4.2H48H47.6z"/>
				<path fill="#FFFFFF" d="M44.8,56.6C44.8,56.6,44.8,56.6,44.8,56.6c-0.1-0.3-0.1-0.5-0.1-0.7c0-0.1,0-0.1,0-0.2
					c-0.2-1.6,0.7-3.2,2.4-3.2c0.5,0,1,0.2,1.5,0.5v-0.3l0,0.1l0-0.2v-3.4l-0.2,1.7l0.1-11.5c-0.1,0-0.1,0-0.2,0
					c-0.1,0-0.3,0-0.4,0.1c-0.1,0-0.1,0-0.2,0l-0.1,11l-2-10.4c-0.4,0.1-0.7,0.2-1.1,0.4l2,10.4l-4.5-9.4c-0.4,0.2-0.8,0.5-1.2,0.8
					l4.4,9.1l-6.9-7c-0.4,0.4-0.7,0.8-1.1,1.3l6.2,6.3l-7.7-3.9c-0.3,0.6-0.6,1.1-0.8,1.7l5.7,2.9l-6-1.2c-0.2,0.7-0.5,2.4-0.5,2.4
					c-0.1,0.8-0.3,1.8-0.3,2.7c0,0,0,0,0,0l3.5,0l-0.6,0.1h8.2C44.8,56.7,44.8,56.7,44.8,56.6z"/>
			</g>
			<g>
				<path fill="#FFFFFF" d="M60.1,83.1L66.5,96l1.7-0.9l-6.1-12.3C61.5,83,60.8,83,60.1,83.1z"/>
				<path fill="#FFFFFF" d="M70.9,80.4l5.7,5.7l1.2-1.2l-5.2-5.3C72,79.9,71.5,80.1,70.9,80.4z"/>
				<path fill="#FFFFFF" d="M81.9,72.9c-0.2,0.2-0.4,0.3-0.5,0.5l5.3,2.7l0.6-1.2l-4.9-2.5C82.2,72.5,82,72.7,81.9,72.9z"/>
				<path fill="#FFFFFF" d="M88.1,64.2l8.6,1.7l0.2-1.1l-8.3-1.7C88.5,63.5,88.3,63.9,88.1,64.2z"/>
				<path fill="#FFFFFF" d="M91.3,54.9c-0.1,0.3-0.1,0.5-0.2,0.8h15.5v-0.8H91.3z"/>
				<path fill="#FFFFFF" d="M50.5,63.6l7.6,15.4c0.7,0,1.4-0.1,2.1-0.1L53,64.3C52.2,64.2,51.3,64,50.5,63.6z"/>
				<path fill="#FFFFFF" d="M55.2,64.4l12.6,12.8c0.6-0.2,1.1-0.4,1.7-0.7L57.2,64.1C56.5,64.3,55.9,64.3,55.2,64.4z"/>
				<path fill="#FFFFFF" d="M60.5,62.8l16.9,8.6c0.4-0.3,0.7-0.7,1.1-1l-16.6-8.4C61.4,62.3,61,62.5,60.5,62.8z"/>
				<path fill="#FFFFFF" d="M64.4,59.4l19.5,4c0.2-0.3,0.4-0.7,0.5-1L65,58.4C64.8,58.7,64.6,59.1,64.4,59.4z"/>
				<path fill="#FFFFFF" d="M66.5,54.9c-0.1,0.3-0.1,0.5-0.2,0.8c0,0,0,0,0,0h20.6c0,0,0,0,0,0c0.1-0.3,0.1-0.5,0.2-0.8c0,0,0,0,0,0
					L66.5,54.9C66.5,54.9,66.5,54.9,66.5,54.9z"/>
				<path fill="#FFFFFF" d="M49.1,56.8c0.1,0.1,0.1,0.3,0.2,0.4c0.2,0.4,0.4,0.8,0.7,1.1c0.1,0.1,4.1,4.4,4.3,4.5
					c0.2,0.2,1.4,0.1,1.7,0l-4.6-4.6l6.3,3.4c0.7-0.1,1.4-0.3,2-0.5l-8-4.3L62.4,59c0.2-0.2,0.5-0.4,0.7-0.6
					c0.1-0.1,0.2-0.2,0.3-0.3L57,56.8H49.1z"/>
			</g>
			<g>
				<path fill="#FFFFFF" d="M34.3,103.3l3.1,0.8l6.1-24.6c-1-0.6-1.9-1.2-2.8-1.9L34.3,103.3z"/>
				<path fill="#FFFFFF" d="M35.1,71.7L22.6,90.8l2.5,1.6l12-18.2C36.4,73.4,35.7,72.6,35.1,71.7z"/>
				<path fill="#FFFFFF" d="M31.6,64.5L11.1,78.3l1.6,2.3l19.9-13.5C32.2,66.3,31.9,65.4,31.6,64.5z"/>
				<path fill="#FFFFFF" d="M30.5,58.3l-30.8,7.8l0.7,2.6L30.8,61C30.6,60.1,30.5,59.2,30.5,58.3z"/>
				<path fill="#FFFFFF" d="M46.5,81c-0.1-0.1-0.3-0.1-0.4-0.2v34.9h0.4H49h0.4V82.1c-0.1,0-0.3-0.1-0.4-0.1
					C48.1,81.7,47.3,81.4,46.5,81z"/>
				<path fill="#FFFFFF" d="M51.9,82.7l4.6,23.1l2.2-0.4l-4.4-22.4C53.4,83,52.7,82.9,51.9,82.7z"/>
				<path fill="#FFFFFF" d="M49.4,63.1c-0.1-0.1-0.3-0.2-0.4-0.3c-0.2-0.1-0.3-0.2-0.5-0.4v14.9c0.2,0.1,0.3,0.1,0.5,0.2
					c0.1,0.1,0.3,0.1,0.4,0.2v-7.6l1.6,8.1c0.8,0.2,1.6,0.4,2.4,0.5l-3-15.2C50,63.4,49.7,63.2,49.4,63.1z"/>
				<path fill="#FFFFFF" d="M47.7,61.8c-0.1-0.1-0.2-0.2-0.3-0.2c-0.4-0.4-0.7-0.7-1-1.2c-0.1-0.1-0.1-0.2-0.2-0.3
					c-0.1-0.1-0.1-0.2-0.2-0.3c-0.3-0.4-0.5-0.8-0.7-1.3c0,0,0-0.1-0.1-0.1c-0.1-0.3-0.3-0.7-0.4-1c0-0.1-0.1-0.3-0.1-0.4
					c0-0.1,0-0.1,0-0.2h-8.2l-2.8,0.9c0,0.9,0.1,1.8,0.2,2.7l6.3-1.8l-5.7,3.8c0.2,1,0.5,1.9,0.9,2.8l6.8-4.6l-5,7.7
					c0.5,0.9,1.2,1.8,1.8,2.7l4.7-7.4L41.7,73c0.8,0.8,1.8,1.5,2.7,2.2l1.6-6.7v7.7c0.1,0.1,0.3,0.2,0.4,0.2c0.6,0.3,1.3,0.7,2,0.9
					V62.4C48.2,62.3,48,62.1,47.7,61.8C47.8,61.8,47.8,61.8,47.7,61.8z"/>
			</g>
			<g>
				<path fill="#FFFFFF" d="M99.3,47.5l-7.4,1.1c0,0.3,0,0.5,0,0.8l7.5-1.1L99.3,47.5z"/>
				<path fill="#FFFFFF" d="M50.5,38.9c-0.2,0-0.3,0-0.5,0l-1.5,10.2v3.4L50.5,38.9z"/>
				<path fill="#FFFFFF" d="M50.8,36.1l4.6-32.8L55,3.2l-4.6,32.9C50.5,36.1,50.6,36.1,50.8,36.1L50.8,36.1z"/>
				<path fill="#FFFFFF" d="M54.4,36.5l8.4-25.7l-0.5-0.2l-8.5,25.8C54,36.4,54.2,36.4,54.4,36.5z"/>
				<path fill="#FFFFFF" d="M58.5,38l11.7-19.7L69.7,18L58,37.7C58.2,37.8,58.3,37.9,58.5,38z"/>
				<path fill="#FFFFFF" d="M62.1,40.7c0.1,0.1,0.2,0.3,0.4,0.4l15-15.3l-0.4-0.4L62.1,40.7C62.1,40.6,62.1,40.6,62.1,40.7z"/>
				<path fill="#FFFFFF" d="M65.3,45.2l19.5-11.9l-0.4-0.6L65,44.6C65.1,44.8,65.2,45,65.3,45.2z"/>
				<path fill="#FFFFFF" d="M66.6,49.4l21.1-7.1c0-0.3,0-0.5,0-0.8l-21.2,7.2C66.5,48.9,66.6,49.2,66.6,49.4z"/>
				<path fill="#FFFFFF" d="M66.8,52.2c0,0.3,0,0.5,0,0.8l25.7-3.8c0-0.3,0-0.5,0-0.8L66.8,52.2z"/>
				<path fill="#FFFFFF" d="M52.2,55.8l12.2-0.1c0,0,0,0,0,0c0.1-0.3,0.2-0.5,0.4-0.8c0,0,0,0,0,0l-10.9,0.1l11-1.5
					c0.1-0.3,0.1-0.5,0.1-0.8l-13,1.8l13-4.4c0-0.2-0.1-0.5-0.1-0.7l-14,4.8l13-7.9c-0.1-0.2-0.2-0.4-0.3-0.6L50,53.7l10.9-11
					c-0.1-0.1-0.2-0.3-0.4-0.4c0,0-0.1,0-0.1-0.1L49.4,53.5l7.8-13.2c-0.2-0.1-0.3-0.2-0.5-0.2l-7.7,13.1l4.6-14
					c-0.2,0-0.3-0.1-0.5-0.1l-4.5,13.6V53c0.6,0.4,1,1.2,1,2c0,0.5-0.2,1.1-0.5,1.5c0,0.1,0,0.1,0.1,0.2c0,0,0,0.1,0.1,0.1H57
					L52.2,55.8z"/>
			</g>
		</g>
	</g>
</g>
</svg>
